<svg id="visual" viewBox="0 0 9999 6999" width="9999" height="6999" xmlns="http://www.w3.org/2000/svg" xmlns:xlink="http://www.w3.org/1999/xlink" version="1.1"><rect x="0" y="0" width="9999" height="6999" fill="#ffffff"></rect><path d="M0 5197L238 5060.2C476 4923.3 952 4649.7 1428.2 4471.7C1904.3 4293.7 2380.7 4211.3 2856.8 4230.3C3333 4249.3 3809 4369.7 4285.2 4533.8C4761.3 4698 5237.7 4906 5713.8 4923.8C6190 4941.7 6666 4769.3 7142.2 4606.3C7618.3 4443.3 8094.7 4289.7 8570.8 4324.7C9047 4359.7 9523 4583.3 9761 4695.2L9999 4807L9999 7000L9761 7000C9523 7000 9047 7000 8570.8 7000C8094.7 7000 7618.3 7000 7142.2 7000C6666 7000 6190 7000 5713.8 7000C5237.7 7000 4761.3 7000 4285.2 7000C3809 7000 3333 7000 2856.8 7000C2380.7 7000 1904.3 7000 1428.2 7000C952 7000 476 7000 238 7000L0 7000Z" fill="#fa7268"></path><path d="M0 4656L238 4722C476 4788 952 4920 1428.2 4997C1904.3 5074 2380.7 5096 2856.8 5150.3C3333 5204.7 3809 5291.3 4285.2 5256.3C4761.3 5221.3 5237.7 5064.7 5713.8 5075.7C6190 5086.7 6666 5265.3 7142.2 5235.8C7618.3 5206.3 8094.7 4968.7 8570.8 4948.7C9047 4928.7 9523 5126.3 9761 5225.2L9999 5324L9999 7000L9761 7000C9523 7000 9047 7000 8570.8 7000C8094.7 7000 7618.3 7000 7142.2 7000C6666 7000 6190 7000 5713.8 7000C5237.7 7000 4761.3 7000 4285.2 7000C3809 7000 3333 7000 2856.8 7000C2380.7 7000 1904.3 7000 1428.2 7000C952 7000 476 7000 238 7000L0 7000Z" fill="#ef5f67"></path><path d="M0 5413L238 5419.5C476 5426 952 5439 1428.2 5503.2C1904.3 5567.3 2380.7 5682.7 2856.8 5636C3333 5589.3 3809 5380.7 4285.2 5339.7C4761.3 5298.7 5237.7 5425.3 5713.8 5475.8C6190 5526.3 6666 5500.7 7142.2 5432.8C7618.3 5365 8094.7 5255 8570.8 5214.5C9047 5174 9523 5203 9761 5217.5L9999 5232L9999 7000L9761 7000C9523 7000 9047 7000 8570.8 7000C8094.7 7000 7618.3 7000 7142.2 7000C6666 7000 6190 7000 5713.8 7000C5237.7 7000 4761.3 7000 4285.2 7000C3809 7000 3333 7000 2856.8 7000C2380.7 7000 1904.3 7000 1428.2 7000C952 7000 476 7000 238 7000L0 7000Z" fill="#e34c67"></path><path d="M0 5868L238 5900C476 5932 952 5996 1428.2 6069.2C1904.3 6142.3 2380.7 6224.7 2856.8 6153.8C3333 6083 3809 5859 4285.2 5844.3C4761.3 5829.7 5237.7 6024.3 5713.8 6060.7C6190 6097 6666 5975 7142.2 5988.8C7618.3 6002.7 8094.7 6152.3 8570.8 6124.8C9047 6097.3 9523 5892.7 9761 5790.3L9999 5688L9999 7000L9761 7000C9523 7000 9047 7000 8570.8 7000C8094.7 7000 7618.3 7000 7142.2 7000C6666 7000 6190 7000 5713.8 7000C5237.7 7000 4761.3 7000 4285.2 7000C3809 7000 3333 7000 2856.8 7000C2380.7 7000 1904.3 7000 1428.2 7000C952 7000 476 7000 238 7000L0 7000Z" fill="#d53867"></path><path d="M0 6456L238 6433.7C476 6411.3 952 6366.7 1428.2 6326.5C1904.3 6286.3 2380.7 6250.7 2856.8 6281.2C3333 6311.7 3809 6408.3 4285.2 6484.8C4761.3 6561.3 5237.7 6617.7 5713.8 6565.5C6190 6513.3 6666 6352.7 7142.2 6274.8C7618.3 6197 8094.7 6202 8570.8 6236.5C9047 6271 9523 6335 9761 6367L9999 6399L9999 7000L9761 7000C9523 7000 9047 7000 8570.8 7000C8094.7 7000 7618.3 7000 7142.2 7000C6666 7000 6190 7000 5713.8 7000C5237.7 7000 4761.3 7000 4285.2 7000C3809 7000 3333 7000 2856.8 7000C2380.7 7000 1904.3 7000 1428.2 7000C952 7000 476 7000 238 7000L0 7000Z" fill="#c62368"></path></svg>