<svg id="visual" viewBox="0 0 9999 5999" width="9999" height="5999" xmlns="http://www.w3.org/2000/svg" xmlns:xlink="http://www.w3.org/1999/xlink" version="1.1"><rect x="0" y="0" width="9999" height="5999" fill="#fffff1"></rect><path d="M0 3851L238 3897.7C476 3944.3 952 4037.7 1428.2 3940.8C1904.3 3844 2380.7 3557 2856.8 3382.2C3333 3207.3 3809 3144.7 4285.2 3284.2C4761.3 3423.7 5237.7 3765.3 5713.8 3870.3C6190 3975.3 6666 3843.7 7142.2 3740.2C7618.3 3636.7 8094.7 3561.3 8570.8 3614.7C9047 3668 9523 3850 9761 3941L9999 4032L9999 6000L9761 6000C9523 6000 9047 6000 8570.8 6000C8094.7 6000 7618.3 6000 7142.2 6000C6666 6000 6190 6000 5713.8 6000C5237.7 6000 4761.3 6000 4285.2 6000C3809 6000 3333 6000 2856.8 6000C2380.7 6000 1904.3 6000 1428.2 6000C952 6000 476 6000 238 6000L0 6000Z" fill="#fa7268"></path><path d="M0 4283L238 4279.8C476 4276.7 952 4270.3 1428.2 4204.8C1904.3 4139.3 2380.7 4014.7 2856.8 3885.5C3333 3756.3 3809 3622.7 4285.2 3591.2C4761.3 3559.7 5237.7 3630.3 5713.8 3769.7C6190 3909 6666 4117 7142.2 4120.2C7618.3 4123.3 8094.7 3921.7 8570.8 3790.7C9047 3659.7 9523 3599.3 9761 3569.2L9999 3539L9999 6000L9761 6000C9523 6000 9047 6000 8570.8 6000C8094.7 6000 7618.3 6000 7142.2 6000C6666 6000 6190 6000 5713.8 6000C5237.7 6000 4761.3 6000 4285.2 6000C3809 6000 3333 6000 2856.8 6000C2380.7 6000 1904.3 6000 1428.2 6000C952 6000 476 6000 238 6000L0 6000Z" fill="#f16367"></path><path d="M0 4561L238 4517.5C476 4474 952 4387 1428.2 4326.5C1904.3 4266 2380.7 4232 2856.8 4244.2C3333 4256.3 3809 4314.7 4285.2 4349C4761.3 4383.3 5237.7 4393.7 5713.8 4319.3C6190 4245 6666 4086 7142.2 4086.2C7618.3 4086.3 8094.7 4245.7 8570.8 4282C9047 4318.3 9523 4231.7 9761 4188.3L9999 4145L9999 6000L9761 6000C9523 6000 9047 6000 8570.8 6000C8094.7 6000 7618.3 6000 7142.2 6000C6666 6000 6190 6000 5713.8 6000C5237.7 6000 4761.3 6000 4285.2 6000C3809 6000 3333 6000 2856.8 6000C2380.7 6000 1904.3 6000 1428.2 6000C952 6000 476 6000 238 6000L0 6000Z" fill="#e85467"></path><path d="M0 4626L238 4669.3C476 4712.7 952 4799.3 1428.2 4830.3C1904.3 4861.3 2380.7 4836.7 2856.8 4744.2C3333 4651.7 3809 4491.3 4285.2 4462C4761.3 4432.7 5237.7 4534.3 5713.8 4589.3C6190 4644.3 6666 4652.7 7142.2 4722.7C7618.3 4792.7 8094.7 4924.3 8570.8 4966.8C9047 5009.3 9523 4962.7 9761 4939.3L9999 4916L9999 6000L9761 6000C9523 6000 9047 6000 8570.8 6000C8094.7 6000 7618.3 6000 7142.2 6000C6666 6000 6190 6000 5713.8 6000C5237.7 6000 4761.3 6000 4285.2 6000C3809 6000 3333 6000 2856.8 6000C2380.7 6000 1904.3 6000 1428.2 6000C952 6000 476 6000 238 6000L0 6000Z" fill="#de4467"></path><path d="M0 4900L238 4933.3C476 4966.7 952 5033.3 1428.2 5013C1904.3 4992.7 2380.7 4885.3 2856.8 4881.3C3333 4877.3 3809 4976.7 4285.2 4994C4761.3 5011.3 5237.7 4946.7 5713.8 4934.8C6190 4923 6666 4964 7142.2 5009.7C7618.3 5055.3 8094.7 5105.7 8570.8 5155C9047 5204.3 9523 5252.7 9761 5276.8L9999 5301L9999 6000L9761 6000C9523 6000 9047 6000 8570.8 6000C8094.7 6000 7618.3 6000 7142.2 6000C6666 6000 6190 6000 5713.8 6000C5237.7 6000 4761.3 6000 4285.2 6000C3809 6000 3333 6000 2856.8 6000C2380.7 6000 1904.3 6000 1428.2 6000C952 6000 476 6000 238 6000L0 6000Z" fill="#d23467"></path><path d="M0 5414L238 5386.5C476 5359 952 5304 1428.2 5274.5C1904.3 5245 2380.7 5241 2856.8 5298.3C3333 5355.7 3809 5474.3 4285.2 5507.5C4761.3 5540.7 5237.7 5488.3 5713.8 5465.3C6190 5442.3 6666 5448.7 7142.2 5420.3C7618.3 5392 8094.7 5329 8570.8 5304C9047 5279 9523 5292 9761 5298.5L9999 5305L9999 6000L9761 6000C9523 6000 9047 6000 8570.8 6000C8094.7 6000 7618.3 6000 7142.2 6000C6666 6000 6190 6000 5713.8 6000C5237.7 6000 4761.3 6000 4285.2 6000C3809 6000 3333 6000 2856.8 6000C2380.7 6000 1904.3 6000 1428.2 6000C952 6000 476 6000 238 6000L0 6000Z" fill="#c62368"></path></svg>