<svg id="visual" viewBox="0 0 900 600" width="900" height="600" xmlns="http://www.w3.org/2000/svg" xmlns:xlink="http://www.w3.org/1999/xlink" version="1.1"><rect x="0" y="0" width="900" height="600" fill="#002233"></rect><path d="M0 302L30 297.8C60 293.7 120 285.3 180 276.7C240 268 300 259 360 244.2C420 229.3 480 208.7 540 200.3C600 192 660 196 720 207.5C780 219 840 238 870 247.5L900 257L900 0L870 0C840 0 780 0 720 0C660 0 600 0 540 0C480 0 420 0 360 0C300 0 240 0 180 0C120 0 60 0 30 0L0 0Z" fill="#063478" stroke-linecap="round" stroke-linejoin="miter"></path></svg>