<svg id="visual" viewBox="0 0 2400 1500" width="2400" height="1500" xmlns="http://www.w3.org/2000/svg" xmlns:xlink="http://www.w3.org/1999/xlink" version="1.1"><rect x="0" y="0" width="2400" height="1500" fill="#0F0F09"></rect><path d="M0 1233L36.3 1230.5C72.7 1228 145.3 1223 218 1225.5C290.7 1228 363.3 1238 436.2 1231.2C509 1224.3 582 1200.7 654.8 1188C727.7 1175.3 800.3 1173.7 873 1188.5C945.7 1203.3 1018.3 1234.7 1091 1239.3C1163.7 1244 1236.3 1222 1309 1210C1381.7 1198 1454.3 1196 1527 1188.3C1599.7 1180.7 1672.3 1167.3 1745.2 1166C1818 1164.7 1891 1175.3 1963.8 1191.7C2036.7 1208 2109.3 1230 2182 1242C2254.7 1254 2327.3 1256 2363.7 1257L2400 1258L2400 1501L2363.7 1501C2327.3 1501 2254.7 1501 2182 1501C2109.3 1501 2036.7 1501 1963.8 1501C1891 1501 1818 1501 1745.2 1501C1672.3 1501 1599.7 1501 1527 1501C1454.3 1501 1381.7 1501 1309 1501C1236.3 1501 1163.7 1501 1091 1501C1018.3 1501 945.7 1501 873 1501C800.3 1501 727.7 1501 654.8 1501C582 1501 509 1501 436.2 1501C363.3 1501 290.7 1501 218 1501C145.3 1501 72.7 1501 36.3 1501L0 1501Z" fill="#fa7268"></path><path d="M0 1303L36.3 1290.2C72.7 1277.3 145.3 1251.7 218 1243.2C290.7 1234.7 363.3 1243.3 436.2 1256.5C509 1269.7 582 1287.3 654.8 1297.7C727.7 1308 800.3 1311 873 1307.2C945.7 1303.3 1018.3 1292.7 1091 1289.3C1163.7 1286 1236.3 1290 1309 1292.5C1381.7 1295 1454.3 1296 1527 1285.2C1599.7 1274.3 1672.3 1251.7 1745.2 1242C1818 1232.3 1891 1235.7 1963.8 1248.8C2036.7 1262 2109.3 1285 2182 1298.3C2254.7 1311.7 2327.3 1315.3 2363.7 1317.2L2400 1319L2400 1501L2363.7 1501C2327.3 1501 2254.7 1501 2182 1501C2109.3 1501 2036.7 1501 1963.8 1501C1891 1501 1818 1501 1745.2 1501C1672.3 1501 1599.7 1501 1527 1501C1454.3 1501 1381.7 1501 1309 1501C1236.3 1501 1163.7 1501 1091 1501C1018.3 1501 945.7 1501 873 1501C800.3 1501 727.7 1501 654.8 1501C582 1501 509 1501 436.2 1501C363.3 1501 290.7 1501 218 1501C145.3 1501 72.7 1501 36.3 1501L0 1501Z" fill="#eb5967"></path><path d="M0 1327L36.3 1328.7C72.7 1330.3 145.3 1333.7 218 1332.8C290.7 1332 363.3 1327 436.2 1335.5C509 1344 582 1366 654.8 1367.5C727.7 1369 800.3 1350 873 1346.3C945.7 1342.7 1018.3 1354.3 1091 1358C1163.7 1361.7 1236.3 1357.3 1309 1355.8C1381.7 1354.3 1454.3 1355.7 1527 1358C1599.7 1360.3 1672.3 1363.7 1745.2 1366.7C1818 1369.7 1891 1372.3 1963.8 1372C2036.7 1371.7 2109.3 1368.3 2182 1370.8C2254.7 1373.3 2327.3 1381.7 2363.7 1385.8L2400 1390L2400 1501L2363.7 1501C2327.3 1501 2254.7 1501 2182 1501C2109.3 1501 2036.7 1501 1963.8 1501C1891 1501 1818 1501 1745.2 1501C1672.3 1501 1599.7 1501 1527 1501C1454.3 1501 1381.7 1501 1309 1501C1236.3 1501 1163.7 1501 1091 1501C1018.3 1501 945.7 1501 873 1501C800.3 1501 727.7 1501 654.8 1501C582 1501 509 1501 436.2 1501C363.3 1501 290.7 1501 218 1501C145.3 1501 72.7 1501 36.3 1501L0 1501Z" fill="#da3f67"></path><path d="M0 1406L36.3 1405.7C72.7 1405.3 145.3 1404.7 218 1406.8C290.7 1409 363.3 1414 436.2 1410.5C509 1407 582 1395 654.8 1398.7C727.7 1402.3 800.3 1421.7 873 1423.7C945.7 1425.7 1018.3 1410.3 1091 1406C1163.7 1401.7 1236.3 1408.3 1309 1409.2C1381.7 1410 1454.3 1405 1527 1408.7C1599.7 1412.3 1672.3 1424.7 1745.2 1431.7C1818 1438.7 1891 1440.3 1963.8 1438.5C2036.7 1436.7 2109.3 1431.3 2182 1424C2254.7 1416.7 2327.3 1407.3 2363.7 1402.7L2400 1398L2400 1501L2363.7 1501C2327.3 1501 2254.7 1501 2182 1501C2109.3 1501 2036.7 1501 1963.8 1501C1891 1501 1818 1501 1745.2 1501C1672.3 1501 1599.7 1501 1527 1501C1454.3 1501 1381.7 1501 1309 1501C1236.3 1501 1163.7 1501 1091 1501C1018.3 1501 945.7 1501 873 1501C800.3 1501 727.7 1501 654.8 1501C582 1501 509 1501 436.2 1501C363.3 1501 290.7 1501 218 1501C145.3 1501 72.7 1501 36.3 1501L0 1501Z" fill="#c62368"></path></svg>