<svg id="visual" viewBox="0 0 1800 900" width="1800" height="900" xmlns="http://www.w3.org/2000/svg" xmlns:xlink="http://www.w3.org/1999/xlink" version="1.1"><rect x="0" y="0" width="1800" height="900" fill="#0F0F09"></rect><path d="M0 560L33.3 561C66.7 562 133.3 564 200 569.7C266.7 575.3 333.3 584.7 400 584.8C466.7 585 533.3 576 600 564.2C666.7 552.3 733.3 537.7 800 530.2C866.7 522.7 933.3 522.3 1000 537.2C1066.7 552 1133.3 582 1200 582.2C1266.7 582.3 1333.3 552.7 1400 548.8C1466.7 545 1533.3 567 1600 566C1666.7 565 1733.3 541 1766.7 529L1800 517L1800 901L1766.7 901C1733.3 901 1666.7 901 1600 901C1533.3 901 1466.7 901 1400 901C1333.3 901 1266.7 901 1200 901C1133.3 901 1066.7 901 1000 901C933.3 901 866.7 901 800 901C733.3 901 666.7 901 600 901C533.3 901 466.7 901 400 901C333.3 901 266.7 901 200 901C133.3 901 66.7 901 33.3 901L0 901Z" fill="#fa7268"></path><path d="M0 646L33.3 635C66.7 624 133.3 602 200 606C266.7 610 333.3 640 400 650.5C466.7 661 533.3 652 600 648.7C666.7 645.3 733.3 647.7 800 632.7C866.7 617.7 933.3 585.3 1000 582.8C1066.7 580.3 1133.3 607.7 1200 614.5C1266.7 621.3 1333.3 607.7 1400 597.3C1466.7 587 1533.3 580 1600 586.2C1666.7 592.3 1733.3 611.7 1766.7 621.3L1800 631L1800 901L1766.7 901C1733.3 901 1666.7 901 1600 901C1533.3 901 1466.7 901 1400 901C1333.3 901 1266.7 901 1200 901C1133.3 901 1066.7 901 1000 901C933.3 901 866.7 901 800 901C733.3 901 666.7 901 600 901C533.3 901 466.7 901 400 901C333.3 901 266.7 901 200 901C133.3 901 66.7 901 33.3 901L0 901Z" fill="#f16367"></path><path d="M0 653L33.3 663.3C66.7 673.7 133.3 694.3 200 686.5C266.7 678.7 333.3 642.3 400 623.3C466.7 604.3 533.3 602.7 600 618.7C666.7 634.7 733.3 668.3 800 681.7C866.7 695 933.3 688 1000 672.3C1066.7 656.7 1133.3 632.3 1200 637.8C1266.7 643.3 1333.3 678.7 1400 689C1466.7 699.3 1533.3 684.7 1600 667.5C1666.7 650.3 1733.3 630.7 1766.7 620.8L1800 611L1800 901L1766.7 901C1733.3 901 1666.7 901 1600 901C1533.3 901 1466.7 901 1400 901C1333.3 901 1266.7 901 1200 901C1133.3 901 1066.7 901 1000 901C933.3 901 866.7 901 800 901C733.3 901 666.7 901 600 901C533.3 901 466.7 901 400 901C333.3 901 266.7 901 200 901C133.3 901 66.7 901 33.3 901L0 901Z" fill="#e85467"></path><path d="M0 759L33.3 753.5C66.7 748 133.3 737 200 735C266.7 733 333.3 740 400 741.3C466.7 742.7 533.3 738.3 600 728.8C666.7 719.3 733.3 704.7 800 700.7C866.7 696.7 933.3 703.3 1000 713.7C1066.7 724 1133.3 738 1200 732.8C1266.7 727.7 1333.3 703.3 1400 703C1466.7 702.7 1533.3 726.3 1600 727.8C1666.7 729.3 1733.3 708.7 1766.7 698.3L1800 688L1800 901L1766.7 901C1733.3 901 1666.7 901 1600 901C1533.3 901 1466.7 901 1400 901C1333.3 901 1266.7 901 1200 901C1133.3 901 1066.7 901 1000 901C933.3 901 866.7 901 800 901C733.3 901 666.7 901 600 901C533.3 901 466.7 901 400 901C333.3 901 266.7 901 200 901C133.3 901 66.7 901 33.3 901L0 901Z" fill="#de4467"></path><path d="M0 734L33.3 744.7C66.7 755.3 133.3 776.7 200 785.5C266.7 794.3 333.3 790.7 400 783.8C466.7 777 533.3 767 600 768C666.7 769 733.3 781 800 788.3C866.7 795.7 933.3 798.3 1000 797.5C1066.7 796.7 1133.3 792.3 1200 788.5C1266.7 784.7 1333.3 781.3 1400 782.7C1466.7 784 1533.3 790 1600 788.5C1666.7 787 1733.3 778 1766.7 773.5L1800 769L1800 901L1766.7 901C1733.3 901 1666.7 901 1600 901C1533.3 901 1466.7 901 1400 901C1333.3 901 1266.7 901 1200 901C1133.3 901 1066.7 901 1000 901C933.3 901 866.7 901 800 901C733.3 901 666.7 901 600 901C533.3 901 466.7 901 400 901C333.3 901 266.7 901 200 901C133.3 901 66.7 901 33.3 901L0 901Z" fill="#d23467"></path><path d="M0 793L33.3 794.3C66.7 795.7 133.3 798.3 200 805.3C266.7 812.3 333.3 823.7 400 822.7C466.7 821.7 533.3 808.3 600 809.8C666.7 811.3 733.3 827.7 800 830.3C866.7 833 933.3 822 1000 821.2C1066.7 820.3 1133.3 829.7 1200 833C1266.7 836.3 1333.3 833.7 1400 829.7C1466.7 825.7 1533.3 820.3 1600 820.5C1666.7 820.7 1733.3 826.3 1766.7 829.2L1800 832L1800 901L1766.7 901C1733.3 901 1666.7 901 1600 901C1533.3 901 1466.7 901 1400 901C1333.3 901 1266.7 901 1200 901C1133.3 901 1066.7 901 1000 901C933.3 901 866.7 901 800 901C733.3 901 666.7 901 600 901C533.3 901 466.7 901 400 901C333.3 901 266.7 901 200 901C133.3 901 66.7 901 33.3 901L0 901Z" fill="#c62368"></path></svg>