<svg id="visual" viewBox="0 0 1800 900" width="1800" height="900" xmlns="http://www.w3.org/2000/svg" xmlns:xlink="http://www.w3.org/1999/xlink" version="1.1"><rect x="0" y="0" width="1800" height="900" fill="#0F0F09"></rect><path d="M0 524L42.8 531C85.7 538 171.3 552 257 565.7C342.7 579.3 428.3 592.7 514 589.2C599.7 585.7 685.3 565.3 771.2 567.5C857 569.7 943 594.3 1028.8 594C1114.7 593.7 1200.3 568.3 1286 563.7C1371.7 559 1457.3 575 1543 583.3C1628.7 591.7 1714.3 592.3 1757.2 592.7L1800 593L1800 901L1757.2 901C1714.3 901 1628.7 901 1543 901C1457.3 901 1371.7 901 1286 901C1200.3 901 1114.7 901 1028.8 901C943 901 857 901 771.2 901C685.3 901 599.7 901 514 901C428.3 901 342.7 901 257 901C171.3 901 85.7 901 42.8 901L0 901Z" fill="#fa7268"></path><path e="M0 663L42.8 657.3C85.7 651.7 171.3 640.3 257 648.8C342.7 657.3 428.3 685.7 514 700.5C599.7 715.3 685.3 716.7 771.2 710.5C857 704.3 943 690.7 1028.8 679C1114.7 667.3 1200.3 657.7 1286 657.5C1371.7 657.3 1457.3 666.7 1543 662.3C1628.7 658 1714.3 640 1757.2 631L1800 622L1800 901L1757.2 901C1714.3 901 1628.7 901 1543 901C1457.3 901 1371.7 901 1286 901C1200.3 901 1114.7 901 1028.8 901C943 901 857 901 771.2 901C685.3 901 599.7 901 514 901C428.3 901 342.7 901 257 901C171.3 901 85.7 901 42.8 901L0 901Z" fill="#ef5f67"></path><path f="M0 737L42.8 735.3C85.7 733.7 171.3 730.3 257 730.2C342.7 730 428.3 733 514 721.2C599.7 709.3 685.3 682.7 771.2 676.3C857 670 943 684 1028.8 697.7C1114.7 711.3 1200.3 724.7 1286 720.3C1371.7 716 1457.3 694 1543 686.7C1628.7 679.3 1714.3 686.7 1757.2 690.3L1800 694L1800 901L1757.2 901C1714.3 901 1628.7 901 1543 901C1457.3 901 1371.7 901 1286 901C1200.3 901 1114.7 901 1028.8 901C943 901 857 901 771.2 901C685.3 901 599.7 901 514 901C428.3 901 342.7 901 257 901C171.3 901 85.7 901 42.8 901L0 901Z" fill="#e34c67"></path><path g="M0 759L42.8 765.3C85.7 771.7 171.3 784.3 257 792.8C342.7 801.3 428.3 805.7 514 800.7C599.7 795.7 685.3 781.3 771.2 772.3C857 763.3 943 759.7 1028.8 755.3C1114.7 751 1200.3 746 1286 744.2C1371.7 742.3 1457.3 743.7 1543 741.8C1628.7 740 1714.3 735 1757.2 732.5L1800 730L1800 901L1757.2 901C1714.3 901 1628.7 901 1543 901C1457.3 901 1371.7 901 1286 901C1200.3 901 1114.7 901 1028.8 901C943 901 857 901 771.2 901C685.3 901 599.7 901 514 901C428.3 901 342.7 901 257 901C171.3 901 85.7 901 42.8 901L0 901Z" fill="#d53867"></path><path h="M0 855L42.8 853.2C85.7 851.3 171.3 847.7 257 837.2C342.7 826.7 428.3 809.3 514 800.7C599.7 792 685.3 792 771.2 802.5C857 813 943 834 1028.8 835.8C1114.7 837.7 1200.3 820.3 1286 811.8C1371.7 803.3 1457.3 803.7 1543 812.8C1628.7 822 1714.3 840 1757.2 849L1800 858L1800 901L1757.2 901C1714.3 901 1628.7 901 1543 901C1457.3 901 1371.7 901 1286 901C1200.3 901 1114.7 901 1028.8 901C943 901 857 901 771.2 901C685.3 901 599.7 901 514 901C428.3 901 342.7 901 257 901C171.3 901 85.7 901 42.8 901L0 901Z" fill="#c62368"></path></svg>