<svg id="visual" viewBox="0 0 1800 900" width="1800" height="900" xmlns="http://www.w3.org/2000/svg" xmlns:xlink="http://www.w3.org/1999/xlink" version="1.1"><rect x="0" y="0" width="1800" height="900" fill="#ffffff"></rect><path d="M0 453L42.8 457.3C85.7 461.7 171.3 470.3 257 477.7C342.7 485 428.3 491 514 504.5C599.7 518 685.3 539 771.2 524.3C857 509.7 943 459.3 1028.8 449.3C1114.7 439.3 1200.3 469.7 1286 477.5C1371.7 485.3 1457.3 470.7 1543 466.5C1628.7 462.3 1714.3 468.7 1757.2 471.8L1800 475L1800 901L1757.2 901C1714.3 901 1628.7 901 1543 901C1457.3 901 1371.7 901 1286 901C1200.3 901 1114.7 901 1028.8 901C943 901 857 901 771.2 901C685.3 901 599.7 901 514 901C428.3 901 342.7 901 257 901C171.3 901 85.7 901 42.8 901L0 901Z" fill="#fa7268"></path><path d="M0 536L42.8 546.3C85.7 556.7 171.3 577.3 257 572.3C342.7 567.3 428.3 536.7 514 531.7C599.7 526.7 685.3 547.3 771.2 542.2C857 537 943 506 1028.8 502.5C1114.7 499 1200.3 523 1286 545C1371.7 567 1457.3 587 1543 584.7C1628.7 582.3 1714.3 557.7 1757.2 545.3L1800 533L1800 901L1757.2 901C1714.3 901 1628.7 901 1543 901C1457.3 901 1371.7 901 1286 901C1200.3 901 1114.7 901 1028.8 901C943 901 857 901 771.2 901C685.3 901 599.7 901 514 901C428.3 901 342.7 901 257 901C171.3 901 85.7 901 42.8 901L0 901Z" fill="#ef5f67"></path><path d="M0 576L42.8 592.5C85.7 609 171.3 642 257 649.7C342.7 657.3 428.3 639.7 514 637C599.7 634.3 685.3 646.7 771.2 647.8C857 649 943 639 1028.8 635.8C1114.7 632.7 1200.3 636.3 1286 640.2C1371.7 644 1457.3 648 1543 650.5C1628.7 653 1714.3 654 1757.2 654.5L1800 655L1800 901L1757.2 901C1714.3 901 1628.7 901 1543 901C1457.3 901 1371.7 901 1286 901C1200.3 901 1114.7 901 1028.8 901C943 901 857 901 771.2 901C685.3 901 599.7 901 514 901C428.3 901 342.7 901 257 901C171.3 901 85.7 901 42.8 901L0 901Z" fill="#e34c67"></path><path d="M0 651L42.8 653.5C85.7 656 171.3 661 257 668.5C342.7 676 428.3 686 514 701.5C599.7 717 685.3 738 771.2 732.5C857 727 943 695 1028.8 680C1114.7 665 1200.3 667 1286 666C1371.7 665 1457.3 661 1543 663.2C1628.7 665.3 1714.3 673.7 1757.2 677.8L1800 682L1800 901L1757.2 901C1714.3 901 1628.7 901 1543 901C1457.3 901 1371.7 901 1286 901C1200.3 901 1114.7 901 1028.8 901C943 901 857 901 771.2 901C685.3 901 599.7 901 514 901C428.3 901 342.7 901 257 901C171.3 901 85.7 901 42.8 901L0 901Z" fill="#d53867"></path><path d="M0 773L42.8 779.2C85.7 785.3 171.3 797.7 257 799.8C342.7 802 428.3 794 514 784.2C599.7 774.3 685.3 762.7 771.2 767.3C857 772 943 793 1028.8 799.8C1114.7 806.7 1200.3 799.3 1286 802.2C1371.7 805 1457.3 818 1543 810.8C1628.7 803.7 1714.3 776.3 1757.2 762.7L1800 749L1800 901L1757.2 901C1714.3 901 1628.7 901 1543 901C1457.3 901 1371.7 901 1286 901C1200.3 901 1114.7 901 1028.8 901C943 901 857 901 771.2 901C685.3 901 599.7 901 514 901C428.3 901 342.7 901 257 901C171.3 901 85.7 901 42.8 901L0 901Z" fill="#c62368"></path></svg>