<svg id="visual" viewBox="0 0 1800 900" width="1800" height="900" xmlns="http://www.w3.org/2000/svg" xmlns:xlink="http://www.w3.org/1999/xlink" version="1.1"><rect x="0" y="0" width="1800" height="900" fill="#0F0F09"></rect><path d="M0 490L33.3 528.7C66.7 567.3 133.3 644.7 200 675.3C266.7 706 333.3 690 400 640.2C466.7 590.3 533.3 506.7 600 499.2C666.7 491.7 733.3 560.3 800 572.7C866.7 585 933.3 541 1000 557.8C1066.7 574.7 1133.3 652.3 1200 646.3C1266.7 640.3 1333.3 550.7 1400 498.8C1466.7 447 1533.3 433 1600 450.5C1666.7 468 1733.3 517 1766.7 541.5L1800 566L1800 901L1766.7 901C1733.3 901 1666.7 901 1600 901C1533.3 901 1466.7 901 1400 901C1333.3 901 1266.7 901 1200 901C1133.3 901 1066.7 901 1000 901C933.3 901 866.7 901 800 901C733.3 901 666.7 901 600 901C533.3 901 466.7 901 400 901C333.3 901 266.7 901 200 901C133.3 901 66.7 901 33.3 901L0 901Z" fill="#fa7268"></path><path d="M0 579L33.3 577C66.7 575 133.3 571 200 581.8C266.7 592.7 333.3 618.3 400 632.2C466.7 646 533.3 648 600 662.8C666.7 677.7 733.3 705.3 800 713.7C866.7 722 933.3 711 1000 716.3C1066.7 721.7 1133.3 743.3 1200 718.8C1266.7 694.3 1333.3 623.7 1400 613.3C1466.7 603 1533.3 653 1600 640.8C1666.7 628.7 1733.3 554.3 1766.7 517.2L1800 480L1800 901L1766.7 901C1733.3 901 1666.7 901 1600 901C1533.3 901 1466.7 901 1400 901C1333.3 901 1266.7 901 1200 901C1133.3 901 1066.7 901 1000 901C933.3 901 866.7 901 800 901C733.3 901 666.7 901 600 901C533.3 901 466.7 901 400 901C333.3 901 266.7 901 200 901C133.3 901 66.7 901 33.3 901L0 901Z" fill="#ef5f67"></path><path d="M0 562L33.3 578.7C66.7 595.3 133.3 628.7 200 632.8C266.7 637 333.3 612 400 628.3C466.7 644.7 533.3 702.3 600 713.7C666.7 725 733.3 690 800 658C866.7 626 933.3 597 1000 583.7C1066.7 570.3 1133.3 572.7 1200 602.2C1266.7 631.7 1333.3 688.3 1400 691.3C1466.7 694.3 1533.3 643.7 1600 649C1666.7 654.3 1733.3 715.7 1766.7 746.3L1800 777L1800 901L1766.7 901C1733.3 901 1666.7 901 1600 901C1533.3 901 1466.7 901 1400 901C1333.3 901 1266.7 901 1200 901C1133.3 901 1066.7 901 1000 901C933.3 901 866.7 901 800 901C733.3 901 666.7 901 600 901C533.3 901 466.7 901 400 901C333.3 901 266.7 901 200 901C133.3 901 66.7 901 33.3 901L0 901Z" fill="#e34c67"></path><path d="M0 800L33.3 788.5C66.7 777 133.3 754 200 732.7C266.7 711.3 333.3 691.7 400 692.2C466.7 692.7 533.3 713.3 600 717C666.7 720.7 733.3 707.3 800 703.3C866.7 699.3 933.3 704.7 1000 699.8C1066.7 695 1133.3 680 1200 696C1266.7 712 1333.3 759 1400 786.3C1466.7 813.7 1533.3 821.3 1600 816.7C1666.7 812 1733.3 795 1766.7 786.5L1800 778L1800 901L1766.7 901C1733.3 901 1666.7 901 1600 901C1533.3 901 1466.7 901 1400 901C1333.3 901 1266.7 901 1200 901C1133.3 901 1066.7 901 1000 901C933.3 901 866.7 901 800 901C733.3 901 666.7 901 600 901C533.3 901 466.7 901 400 901C333.3 901 266.7 901 200 901C133.3 901 66.7 901 33.3 901L0 901Z" fill="#d53867"></path><path d="M0 734L33.3 733.2C66.7 732.3 133.3 730.7 200 734.8C266.7 739 333.3 749 400 763.3C466.7 777.7 533.3 796.3 600 792.5C666.7 788.7 733.3 762.3 800 751.2C866.7 740 933.3 744 1000 749.8C1066.7 755.7 1133.3 763.3 1200 776.3C1266.7 789.3 1333.3 807.7 1400 820C1466.7 832.3 1533.3 838.7 1600 830.7C1666.7 822.7 1733.3 800.3 1766.7 789.2L1800 778L1800 901L1766.7 901C1733.3 901 1666.7 901 1600 901C1533.3 901 1466.7 901 1400 901C1333.3 901 1266.7 901 1200 901C1133.3 901 1066.7 901 1000 901C933.3 901 866.7 901 800 901C733.3 901 666.7 901 600 901C533.3 901 466.7 901 400 901C333.3 901 266.7 901 200 901C133.3 901 66.7 901 33.3 901L0 901Z" fill="#c62368"></path></svg>