<svg id="visual" viewBox="0 0 2400 1500" width="2400" height="1500" xmlns="http://www.w3.org/2000/svg" xmlns:xlink="http://www.w3.org/1999/xlink" version="1.1"><rect x="0" y="0" width="2400" height="1500" fill="#ffffff"></rect><path d="M0 1286L57.2 1288.2C114.3 1290.3 228.7 1294.7 343 1298.3C457.3 1302 571.7 1305 686 1311.5C800.3 1318 914.7 1328 1028.8 1321C1143 1314 1257 1290 1371.2 1285.2C1485.3 1280.3 1599.7 1294.7 1714 1298.3C1828.3 1302 1942.7 1295 2057 1293C2171.3 1291 2285.7 1294 2342.8 1295.5L2400 1297L2400 1501L2342.8 1501C2285.7 1501 2171.3 1501 2057 1501C1942.7 1501 1828.3 1501 1714 1501C1599.7 1501 1485.3 1501 1371.2 1501C1257 1501 1143 1501 1028.8 1501C914.7 1501 800.3 1501 686 1501C571.7 1501 457.3 1501 343 1501C228.7 1501 114.3 1501 57.2 1501L0 1501Z" fill="#fa7268"></path><path d="M0 1326L57.2 1331C114.3 1336 228.7 1346 343 1343.7C457.3 1341.3 571.7 1326.7 686 1324.2C800.3 1321.7 914.7 1331.3 1028.8 1328.8C1143 1326.3 1257 1311.7 1371.2 1310C1485.3 1308.3 1599.7 1319.7 1714 1330.2C1828.3 1340.7 1942.7 1350.3 2057 1349.3C2171.3 1348.3 2285.7 1336.7 2342.8 1330.8L2400 1325L2400 1501L2342.8 1501C2285.7 1501 2171.3 1501 2057 1501C1942.7 1501 1828.3 1501 1714 1501C1599.7 1501 1485.3 1501 1371.2 1501C1257 1501 1143 1501 1028.8 1501C914.7 1501 800.3 1501 686 1501C571.7 1501 457.3 1501 343 1501C228.7 1501 114.3 1501 57.2 1501L0 1501Z" fill="#ef5f67"></path><path d="M0 1345L57.2 1352.8C114.3 1360.7 228.7 1376.3 343 1380C457.3 1383.7 571.7 1375.3 686 1374.2C800.3 1373 914.7 1379 1028.8 1379.5C1143 1380 1257 1375 1371.2 1373.5C1485.3 1372 1599.7 1374 1714 1376C1828.3 1378 1942.7 1380 2057 1381.2C2171.3 1382.3 2285.7 1382.7 2342.8 1382.8L2400 1383L2400 1501L2342.8 1501C2285.7 1501 2171.3 1501 2057 1501C1942.7 1501 1828.3 1501 1714 1501C1599.7 1501 1485.3 1501 1371.2 1501C1257 1501 1143 1501 1028.8 1501C914.7 1501 800.3 1501 686 1501C571.7 1501 457.3 1501 343 1501C228.7 1501 114.3 1501 57.2 1501L0 1501Z" fill="#e34c67"></path><path d="M0 1381L57.2 1382.2C114.3 1383.3 228.7 1385.7 343 1389.2C457.3 1392.7 571.7 1397.3 686 1404.7C800.3 1412 914.7 1422 1028.8 1419.3C1143 1416.7 1257 1401.3 1371.2 1394.2C1485.3 1387 1599.7 1388 1714 1387.7C1828.3 1387.3 1942.7 1385.7 2057 1386.7C2171.3 1387.7 2285.7 1391.3 2342.8 1393.2L2400 1395L2400 1501L2342.8 1501C2285.7 1501 2171.3 1501 2057 1501C1942.7 1501 1828.3 1501 1714 1501C1599.7 1501 1485.3 1501 1371.2 1501C1257 1501 1143 1501 1028.8 1501C914.7 1501 800.3 1501 686 1501C571.7 1501 457.3 1501 343 1501C228.7 1501 114.3 1501 57.2 1501L0 1501Z" fill="#d53867"></path><path d="M0 1439L57.2 1442C114.3 1445 228.7 1451 343 1452C457.3 1453 571.7 1449 686 1444.3C800.3 1439.7 914.7 1434.3 1028.8 1436.7C1143 1439 1257 1449 1371.2 1452.2C1485.3 1455.3 1599.7 1451.7 1714 1452.8C1828.3 1454 1942.7 1460 2057 1456.7C2171.3 1453.3 2285.7 1440.7 2342.8 1434.3L2400 1428L2400 1501L2342.8 1501C2285.7 1501 2171.3 1501 2057 1501C1942.7 1501 1828.3 1501 1714 1501C1599.7 1501 1485.3 1501 1371.2 1501C1257 1501 1143 1501 1028.8 1501C914.7 1501 800.3 1501 686 1501C571.7 1501 457.3 1501 343 1501C228.7 1501 114.3 1501 57.2 1501L0 1501Z" fill="#c62368"></path></svg>