<svg id="visual" viewBox="0 0 2400 1500" width="2400" height="1500" xmlns="http://www.w3.org/2000/svg" xmlns:xlink="http://www.w3.org/1999/xlink" version="1.1"><rect x="0" y="0" width="2400" height="1500" fill="#0F0F09"></rect><path d="M0 879L36.3 873C72.7 867 145.3 855 218 860.7C290.7 866.3 363.3 889.7 436.2 873.7C509 857.7 582 802.3 654.8 772.7C727.7 743 800.3 739 873 773.7C945.7 808.3 1018.3 881.7 1091 892.7C1163.7 903.7 1236.3 852.3 1309 824.5C1381.7 796.7 1454.3 792.3 1527 774.3C1599.7 756.3 1672.3 724.7 1745.2 721.5C1818 718.3 1891 743.7 1963.8 781.8C2036.7 820 2109.3 871 2182 898.8C2254.7 926.7 2327.3 931.3 2363.7 933.7L2400 936L2400 1501L2363.7 1501C2327.3 1501 2254.7 1501 2182 1501C2109.3 1501 2036.7 1501 1963.8 1501C1891 1501 1818 1501 1745.2 1501C1672.3 1501 1599.7 1501 1527 1501C1454.3 1501 1381.7 1501 1309 1501C1236.3 1501 1163.7 1501 1091 1501C1018.3 1501 945.7 1501 873 1501C800.3 1501 727.7 1501 654.8 1501C582 1501 509 1501 436.2 1501C363.3 1501 290.7 1501 218 1501C145.3 1501 72.7 1501 36.3 1501L0 1501Z" fill="#fa7268"></path><path d="M0 1041L36.3 1011C72.7 981 145.3 921 218 901.3C290.7 881.7 363.3 902.3 436.2 933.2C509 964 582 1005 654.8 1029C727.7 1053 800.3 1060 873 1051.2C945.7 1042.3 1018.3 1017.7 1091 1009.8C1163.7 1002 1236.3 1011 1309 1016.7C1381.7 1022.3 1454.3 1024.7 1527 999.5C1599.7 974.3 1672.3 921.7 1745.2 899C1818 876.3 1891 883.7 1963.8 914.5C2036.7 945.3 2109.3 999.7 2182 1030.8C2254.7 1062 2327.3 1070 2363.7 1074L2400 1078L2400 1501L2363.7 1501C2327.3 1501 2254.7 1501 2182 1501C2109.3 1501 2036.7 1501 1963.8 1501C1891 1501 1818 1501 1745.2 1501C1672.3 1501 1599.7 1501 1527 1501C1454.3 1501 1381.7 1501 1309 1501C1236.3 1501 1163.7 1501 1091 1501C1018.3 1501 945.7 1501 873 1501C800.3 1501 727.7 1501 654.8 1501C582 1501 509 1501 436.2 1501C363.3 1501 290.7 1501 218 1501C145.3 1501 72.7 1501 36.3 1501L0 1501Z" fill="#eb5967"></path><path d="M0 1097L36.3 1100.8C72.7 1104.7 145.3 1112.3 218 1110.5C290.7 1108.7 363.3 1097.3 436.2 1117.2C509 1137 582 1188 654.8 1191.7C727.7 1195.3 800.3 1151.7 873 1143.2C945.7 1134.7 1018.3 1161.3 1091 1169.7C1163.7 1178 1236.3 1168 1309 1164.7C1381.7 1161.3 1454.3 1164.7 1527 1170C1599.7 1175.3 1672.3 1182.7 1745.2 1189.8C1818 1197 1891 1204 1963.8 1203.5C2036.7 1203 2109.3 1195 2182 1200.5C2254.7 1206 2327.3 1225 2363.7 1234.5L2400 1244L2400 1501L2363.7 1501C2327.3 1501 2254.7 1501 2182 1501C2109.3 1501 2036.7 1501 1963.8 1501C1891 1501 1818 1501 1745.2 1501C1672.3 1501 1599.7 1501 1527 1501C1454.3 1501 1381.7 1501 1309 1501C1236.3 1501 1163.7 1501 1091 1501C1018.3 1501 945.7 1501 873 1501C800.3 1501 727.7 1501 654.8 1501C582 1501 509 1501 436.2 1501C363.3 1501 290.7 1501 218 1501C145.3 1501 72.7 1501 36.3 1501L0 1501Z" fill="#da3f67"></path><path d="M0 1281L36.3 1280.3C72.7 1279.7 145.3 1278.3 218 1283.5C290.7 1288.7 363.3 1300.3 436.2 1292C509 1283.7 582 1255.3 654.8 1263.8C727.7 1272.3 800.3 1317.7 873 1322.3C945.7 1327 1018.3 1291 1091 1281.2C1163.7 1271.3 1236.3 1287.7 1309 1289.8C1381.7 1292 1454.3 1280 1527 1288.5C1599.7 1297 1672.3 1326 1745.2 1342.2C1818 1358.3 1891 1361.7 1963.8 1357.5C2036.7 1353.3 2109.3 1341.7 2182 1324.8C2254.7 1308 2327.3 1286 2363.7 1275L2400 1264L2400 1501L2363.7 1501C2327.3 1501 2254.7 1501 2182 1501C2109.3 1501 2036.7 1501 1963.8 1501C1891 1501 1818 1501 1745.2 1501C1672.3 1501 1599.7 1501 1527 1501C1454.3 1501 1381.7 1501 1309 1501C1236.3 1501 1163.7 1501 1091 1501C1018.3 1501 945.7 1501 873 1501C800.3 1501 727.7 1501 654.8 1501C582 1501 509 1501 436.2 1501C363.3 1501 290.7 1501 218 1501C145.3 1501 72.7 1501 36.3 1501L0 1501Z" fill="#c62368"></path></svg>