<svg id="visual" viewBox="0 0 2400 1500" width="2400" height="1500" xmlns="http://www.w3.org/2000/svg" xmlns:xlink="http://www.w3.org/1999/xlink" version="1.1"><rect x="0" y="0" width="2400" height="1500" fill="#ffffff"></rect><path d="M0 755L57.2 762.2C114.3 769.3 228.7 783.7 343 796C457.3 808.3 571.7 818.7 686 841.3C800.3 864 914.7 899 1028.8 874.7C1143 850.3 1257 766.7 1371.2 750.2C1485.3 733.7 1599.7 784.3 1714 797.3C1828.3 810.3 1942.7 785.7 2057 778.5C2171.3 771.3 2285.7 781.7 2342.8 786.8L2400 792L2400 1501L2342.8 1501C2285.7 1501 2171.3 1501 2057 1501C1942.7 1501 1828.3 1501 1714 1501C1599.7 1501 1485.3 1501 1371.2 1501C1257 1501 1143 1501 1028.8 1501C914.7 1501 800.3 1501 686 1501C571.7 1501 457.3 1501 343 1501C228.7 1501 114.3 1501 57.2 1501L0 1501Z" fill="#fa7268"></path><path d="M0 894L57.2 911.3C114.3 928.7 228.7 963.3 343 955C457.3 946.7 571.7 895.3 686 887C800.3 878.7 914.7 913.3 1028.8 904.8C1143 896.3 1257 844.7 1371.2 838.7C1485.3 832.7 1599.7 872.3 1714 909C1828.3 945.7 1942.7 979.3 2057 975.5C2171.3 971.7 2285.7 930.3 2342.8 909.7L2400 889L2400 1501L2342.8 1501C2285.7 1501 2171.3 1501 2057 1501C1942.7 1501 1828.3 1501 1714 1501C1599.7 1501 1485.3 1501 1371.2 1501C1257 1501 1143 1501 1028.8 1501C914.7 1501 800.3 1501 686 1501C571.7 1501 457.3 1501 343 1501C228.7 1501 114.3 1501 57.2 1501L0 1501Z" fill="#ef5f67"></path><path d="M0 961L57.2 988.5C114.3 1016 228.7 1071 343 1083.8C457.3 1096.7 571.7 1067.3 686 1063C800.3 1058.7 914.7 1079.3 1028.8 1081.2C1143 1083 1257 1066 1371.2 1060.7C1485.3 1055.3 1599.7 1061.7 1714 1068.2C1828.3 1074.7 1942.7 1081.3 2057 1085.3C2171.3 1089.3 2285.7 1090.7 2342.8 1091.3L2400 1092L2400 1501L2342.8 1501C2285.7 1501 2171.3 1501 2057 1501C1942.7 1501 1828.3 1501 1714 1501C1599.7 1501 1485.3 1501 1371.2 1501C1257 1501 1143 1501 1028.8 1501C914.7 1501 800.3 1501 686 1501C571.7 1501 457.3 1501 343 1501C228.7 1501 114.3 1501 57.2 1501L0 1501Z" fill="#e34c67"></path><path d="M0 1085L57.2 1089.3C114.3 1093.7 228.7 1102.3 343 1114.8C457.3 1127.3 571.7 1143.7 686 1169.3C800.3 1195 914.7 1230 1028.8 1220.8C1143 1211.7 1257 1158.3 1371.2 1133.3C1485.3 1108.3 1599.7 1111.7 1714 1110.2C1828.3 1108.7 1942.7 1102.3 2057 1106C2171.3 1109.7 2285.7 1123.3 2342.8 1130.2L2400 1137L2400 1501L2342.8 1501C2285.7 1501 2171.3 1501 2057 1501C1942.7 1501 1828.3 1501 1714 1501C1599.7 1501 1485.3 1501 1371.2 1501C1257 1501 1143 1501 1028.8 1501C914.7 1501 800.3 1501 686 1501C571.7 1501 457.3 1501 343 1501C228.7 1501 114.3 1501 57.2 1501L0 1501Z" fill="#d53867"></path><path d="M0 1290L57.2 1300.2C114.3 1310.3 228.7 1330.7 343 1334.2C457.3 1337.7 571.7 1324.3 686 1308C800.3 1291.7 914.7 1272.3 1028.8 1280.2C1143 1288 1257 1323 1371.2 1334.3C1485.3 1345.7 1599.7 1333.3 1714 1337.8C1828.3 1342.3 1942.7 1363.7 2057 1351.8C2171.3 1340 2285.7 1295 2342.8 1272.5L2400 1250L2400 1501L2342.8 1501C2285.7 1501 2171.3 1501 2057 1501C1942.7 1501 1828.3 1501 1714 1501C1599.7 1501 1485.3 1501 1371.2 1501C1257 1501 1143 1501 1028.8 1501C914.7 1501 800.3 1501 686 1501C571.7 1501 457.3 1501 343 1501C228.7 1501 114.3 1501 57.2 1501L0 1501Z" fill="#c62368"></path></svg>