<svg id="visual" viewBox="0 0 1800 900" width="1800" height="900" xmlns="http://www.w3.org/2000/svg" xmlns:xlink="http://www.w3.org/1999/xlink" version="1.1"><rect x="0" y="0" width="1800" height="900" fill="#ffffff"></rect><path d="M0 699L42.8 702.2C85.7 705.3 171.3 711.7 257 711.5C342.7 711.3 428.3 704.7 514 699C599.7 693.3 685.3 688.7 771.2 689C857 689.3 943 694.7 1028.8 697.5C1114.7 700.3 1200.3 700.7 1286 700.2C1371.7 699.7 1457.3 698.3 1543 700.8C1628.7 703.3 1714.3 709.7 1757.2 712.8L1800 716L1800 901L1757.2 901C1714.3 901 1628.7 901 1543 901C1457.3 901 1371.7 901 1286 901C1200.3 901 1114.7 901 1028.8 901C943 901 857 901 771.2 901C685.3 901 599.7 901 514 901C428.3 901 342.7 901 257 901C171.3 901 85.7 901 42.8 901L0 901Z" fill="#fa7268"></path><path d="M0 745L42.8 742.2C85.7 739.3 171.3 733.7 257 733.8C342.7 734 428.3 740 514 738.7C599.7 737.3 685.3 728.7 771.2 725.3C857 722 943 724 1028.8 727.7C1114.7 731.3 1200.3 736.7 1286 736.3C1371.7 736 1457.3 730 1543 728.5C1628.7 727 1714.3 730 1757.2 731.5L1800 733L1800 901L1757.2 901C1714.3 901 1628.7 901 1543 901C1457.3 901 1371.7 901 1286 901C1200.3 901 1114.7 901 1028.8 901C943 901 857 901 771.2 901C685.3 901 599.7 901 514 901C428.3 901 342.7 901 257 901C171.3 901 85.7 901 42.8 901L0 901Z" fill="#ef5f67"></path><path d="M0 771L42.8 773.2C85.7 775.3 171.3 779.7 257 783.2C342.7 786.7 428.3 789.3 514 785.3C599.7 781.3 685.3 770.7 771.2 766.2C857 761.7 943 763.3 1028.8 763.8C1114.7 764.3 1200.3 763.7 1286 767.7C1371.7 771.7 1457.3 780.3 1543 784.2C1628.7 788 1714.3 787 1757.2 786.5L1800 786L1800 901L1757.2 901C1714.3 901 1628.7 901 1543 901C1457.3 901 1371.7 901 1286 901C1200.3 901 1114.7 901 1028.8 901C943 901 857 901 771.2 901C685.3 901 599.7 901 514 901C428.3 901 342.7 901 257 901C171.3 901 85.7 901 42.8 901L0 901Z" fill="#e34c67"></path><path d="M0 813L42.8 816.3C85.7 819.7 171.3 826.3 257 824C342.7 821.7 428.3 810.3 514 807.5C599.7 804.7 685.3 810.3 771.2 814.5C857 818.7 943 821.3 1028.8 821.2C1114.7 821 1200.3 818 1286 816C1371.7 814 1457.3 813 1543 810C1628.7 807 1714.3 802 1757.2 799.5L1800 797L1800 901L1757.2 901C1714.3 901 1628.7 901 1543 901C1457.3 901 1371.7 901 1286 901C1200.3 901 1114.7 901 1028.8 901C943 901 857 901 771.2 901C685.3 901 599.7 901 514 901C428.3 901 342.7 901 257 901C171.3 901 85.7 901 42.8 901L0 901Z" fill="#d53867"></path><path d="M0 839L42.8 843.8C85.7 848.7 171.3 858.3 257 858.3C342.7 858.3 428.3 848.7 514 845.5C599.7 842.3 685.3 845.7 771.2 846.7C857 847.7 943 846.3 1028.8 846.2C1114.7 846 1200.3 847 1286 847.5C1371.7 848 1457.3 848 1543 851.5C1628.7 855 1714.3 862 1757.2 865.5L1800 869L1800 901L1757.2 901C1714.3 901 1628.7 901 1543 901C1457.3 901 1371.7 901 1286 901C1200.3 901 1114.7 901 1028.8 901C943 901 857 901 771.2 901C685.3 901 599.7 901 514 901C428.3 901 342.7 901 257 901C171.3 901 85.7 901 42.8 901L0 901Z" fill="#c62368"></path></svg>