<svg id="visual" viewBox="0 0 2100 1500" width="2100" height="1500" xmlns="http://www.w3.org/2000/svg" xmlns:xlink="http://www.w3.org/1999/xlink" version="1.1"><path d="M0 106L31.8 111C63.7 116 127.3 126 191 131C254.7 136 318.3 136 382 143.5C445.7 151 509.3 166 573 153.5C636.7 141 700.3 101 764 93.5C827.7 86 891.3 111 954.8 133.5C1018.3 156 1081.7 176 1145.2 186C1208.7 196 1272.3 196 1336 191C1399.7 186 1463.3 176 1527 158.5C1590.7 141 1654.3 116 1718 118.5C1781.7 121 1845.3 151 1909 151C1972.7 151 2036.3 121 2068.2 106L2100 91L2100 0L2068.2 0C2036.3 0 1972.7 0 1909 0C1845.3 0 1781.7 0 1718 0C1654.3 0 1590.7 0 1527 0C1463.3 0 1399.7 0 1336 0C1272.3 0 1208.7 0 1145.2 0C1081.7 0 1018.3 0 954.8 0C891.3 0 827.7 0 764 0C700.3 0 636.7 0 573 0C509.3 0 445.7 0 382 0C318.3 0 254.7 0 191 0C127.3 0 63.7 0 31.8 0L0 0Z" fill="#6198ff"></path><path d="M0 406L31.8 396C63.7 386 127.3 366 191 351C254.7 336 318.3 326 382 331C445.7 336 509.3 356 573 353.5C636.7 351 700.3 326 764 328.5C827.7 331 891.3 361 954.8 376C1018.3 391 1081.7 391 1145.2 401C1208.7 411 1272.3 431 1336 426C1399.7 421 1463.3 391 1527 343.5C1590.7 296 1654.3 231 1718 211C1781.7 191 1845.3 216 1909 233.5C1972.7 251 2036.3 261 2068.2 266L2100 271L2100 89L2068.2 104C2036.3 119 1972.7 149 1909 149C1845.3 149 1781.7 119 1718 116.5C1654.3 114 1590.7 139 1527 156.5C1463.3 174 1399.7 184 1336 189C1272.3 194 1208.7 194 1145.2 184C1081.7 174 1018.3 154 954.8 131.5C891.3 109 827.7 84 764 91.5C700.3 99 636.7 139 573 151.5C509.3 164 445.7 149 382 141.5C318.3 134 254.7 134 191 129C127.3 124 63.7 114 31.8 109L0 104Z" fill="#1c6fff"></path><path d="M0 571L31.8 556C63.7 541 127.3 511 191 488.5C254.7 466 318.3 451 382 521C445.7 591 509.3 746 573 776C636.7 806 700.3 711 764 651C827.7 591 891.3 566 954.8 553.5C1018.3 541 1081.7 541 1145.2 548.5C1208.7 556 1272.3 571 1336 618.5C1399.7 666 1463.3 746 1527 746C1590.7 746 1654.3 666 1718 628.5C1781.7 591 1845.3 596 1909 593.5C1972.7 591 2036.3 581 2068.2 576L2100 571L2100 269L2068.2 264C2036.3 259 1972.7 249 1909 231.5C1845.3 214 1781.7 189 1718 209C1654.3 229 1590.7 294 1527 341.5C1463.3 389 1399.7 419 1336 424C1272.3 429 1208.7 409 1145.2 399C1081.7 389 1018.3 389 954.8 374C891.3 359 827.7 329 764 326.5C700.3 324 636.7 349 573 351.5C509.3 354 445.7 334 382 329C318.3 324 254.7 334 191 349C127.3 364 63.7 384 31.8 394L0 404Z" fill="#0055d1"></path><path d="M0 676L31.8 673.5C63.7 671 127.3 666 191 666C254.7 666 318.3 671 382 726C445.7 781 509.3 886 573 903.5C636.7 921 700.3 851 764 791C827.7 731 891.3 681 954.8 673.5C1018.3 666 1081.7 701 1145.2 708.5C1208.7 716 1272.3 696 1336 726C1399.7 756 1463.3 836 1527 838.5C1590.7 841 1654.3 766 1718 751C1781.7 736 1845.3 781 1909 786C1972.7 791 2036.3 756 2068.2 738.5L2100 721L2100 569L2068.2 574C2036.3 579 1972.7 589 1909 591.5C1845.3 594 1781.7 589 1718 626.5C1654.3 664 1590.7 744 1527 744C1463.3 744 1399.7 664 1336 616.5C1272.3 569 1208.7 554 1145.2 546.5C1081.7 539 1018.3 539 954.8 551.5C891.3 564 827.7 589 764 649C700.3 709 636.7 804 573 774C509.3 744 445.7 589 382 519C318.3 449 254.7 464 191 486.5C127.3 509 63.7 539 31.8 554L0 569Z" fill="#004cbb"></path><path d="M0 1291L31.8 1258.5C63.7 1226 127.3 1161 191 1148.5C254.7 1136 318.3 1176 382 1196C445.7 1216 509.3 1216 573 1193.5C636.7 1171 700.3 1126 764 1096C827.7 1066 891.3 1051 954.8 1068.5C1018.3 1086 1081.7 1136 1145.2 1141C1208.7 1146 1272.3 1106 1336 1096C1399.7 1086 1463.3 1106 1527 1098.5C1590.7 1091 1654.3 1056 1718 1073.5C1781.7 1091 1845.3 1161 1909 1163.5C1972.7 1166 2036.3 1101 2068.2 1068.5L2100 1036L2100 719L2068.2 736.5C2036.3 754 1972.7 789 1909 784C1845.3 779 1781.7 734 1718 749C1654.3 764 1590.7 839 1527 836.5C1463.3 834 1399.7 754 1336 724C1272.3 694 1208.7 714 1145.2 706.5C1081.7 699 1018.3 664 954.8 671.5C891.3 679 827.7 729 764 789C700.3 849 636.7 919 573 901.5C509.3 884 445.7 779 382 724C318.3 669 254.7 664 191 664C127.3 664 63.7 669 31.8 671.5L0 674Z" fill="#0055d1"></path><path d="M0 1411L31.8 1403.5C63.7 1396 127.3 1381 191 1383.5C254.7 1386 318.3 1406 382 1421C445.7 1436 509.3 1446 573 1441C636.7 1436 700.3 1416 764 1393.5C827.7 1371 891.3 1346 954.8 1346C1018.3 1346 1081.7 1371 1145.2 1371C1208.7 1371 1272.3 1346 1336 1338.5C1399.7 1331 1463.3 1341 1527 1356C1590.7 1371 1654.3 1391 1718 1406C1781.7 1421 1845.3 1431 1909 1418.5C1972.7 1406 2036.3 1371 2068.2 1353.5L2100 1336L2100 1034L2068.2 1066.5C2036.3 1099 1972.7 1164 1909 1161.5C1845.3 1159 1781.7 1089 1718 1071.5C1654.3 1054 1590.7 1089 1527 1096.5C1463.3 1104 1399.7 1084 1336 1094C1272.3 1104 1208.7 1144 1145.2 1139C1081.7 1134 1018.3 1084 954.8 1066.5C891.3 1049 827.7 1064 764 1094C700.3 1124 636.7 1169 573 1191.5C509.3 1214 445.7 1214 382 1194C318.3 1174 254.7 1134 191 1146.5C127.3 1159 63.7 1224 31.8 1256.5L0 1289Z" fill="#1c6fff"></path><path d="M0 1501L31.8 1501C63.7 1501 127.3 1501 191 1501C254.7 1501 318.3 1501 382 1501C445.7 1501 509.3 1501 573 1501C636.7 1501 700.3 1501 764 1501C827.7 1501 891.3 1501 954.8 1501C1018.3 1501 1081.7 1501 1145.2 1501C1208.7 1501 1272.3 1501 1336 1501C1399.7 1501 1463.3 1501 1527 1501C1590.7 1501 1654.3 1501 1718 1501C1781.7 1501 1845.3 1501 1909 1501C1972.7 1501 2036.3 1501 2068.2 1501L2100 1501L2100 1334L2068.2 1351.5C2036.3 1369 1972.7 1404 1909 1416.5C1845.3 1429 1781.7 1419 1718 1404C1654.3 1389 1590.7 1369 1527 1354C1463.3 1339 1399.7 1329 1336 1336.5C1272.3 1344 1208.7 1369 1145.2 1369C1081.7 1369 1018.3 1344 954.8 1344C891.3 1344 827.7 1369 764 1391.5C700.3 1414 636.7 1434 573 1439C509.3 1444 445.7 1434 382 1419C318.3 1404 254.7 1384 191 1381.5C127.3 1379 63.7 1394 31.8 1401.5L0 1409Z" fill="#6198ff"></path></svg>